PathFileType	4	(X/Y/Z)	/Users/niels/Desktop/University/Third Semester/Perception and Action/Exam/Gymnastics Motion Tracking/Code for Gym Tracking/Analyzed Data/Webcam_Backflip/id7_4_baseline_Sports2D/id7_4_baseline_Sports2D_px_person00.trc
DataRate	CameraRate	NumFrames	NumMarkers	Units	OrigDataRate	OrigDataStartFrame	OrigNumFrames
29.810126582278482	29.810126582278482	8	22	m	29.810126582278482	138	158
Frame#	Time	Hip			RHip			RKnee			RAnkle			RBigToe			RSmallToe			RHeel			LHip			LKnee			LAnkle			LBigToe			LSmallToe			LHeel			Neck			Head			Nose			RShoulder			RElbow			RWrist			LShoulder			LElbow			LWrist		
		X1	Y1	Z1	X2	Y2	Z2	X3	Y3	Z3	X4	Y4	Z4	X5	Y5	Z5	X6	Y6	Z6	X7	Y7	Z7	X8	Y8	Z8	X9	Y9	Z9	X10	Y10	Z10	X11	Y11	Z11	X12	Y12	Z12	X13	Y13	Z13	X14	Y14	Z14	X15	Y15	Z15	X16	Y16	Z16	X17	Y17	Z17	X18	Y18	Z18	X19	Y19	Z19	X20	Y20	Z20	X21	Y21	Z21	X22	Y22	Z22
138	4.629299363057325	0.9560168478268984	-0.623707405104213	0.0	0.9406891497206569	-0.6263787409863568	0.0	0.9320692733373737	-0.7310410209096332	0.0	0.9244823412589922	-0.8318119769639554	0.0	0.9606966660917708	-0.8495163170219181	0.0	0.9471276382284528	-0.8494061451340292	0.0	0.917264069107333	-0.8428277734071762	0.0	0.9708545940356824	-0.625370873704875	0.0	0.9588953327181484	-0.7306791416619947	0.0	0.9412198405349238	-0.8249398411116674	0.0	0.9772946713561522	-0.8431553894056881	0.0	0.9757590982242754	-0.8367492099601582	0.0	0.9374942667518334	-0.8353478446136233	0.0	0.9495928225331349	-0.47457339993153347	0.0	0.9508528034207194	-0.40944763501588516	0.0	0.9606265241339924	-0.44195324882496484	0.0	0.9240895109801742	-0.5014759751706845	0.0	0.9130264861034422	-0.5726791658602907	0.0	0.911640260857197	-0.6394892936364696	0.0	0.9685817105618382	-0.49680197955173566	0.0	0.964127529338009	-0.5670781964318916	0.0	0.9739970730110147	-0.6331299673060352	0.0
139	4.662845010615711	0.9558640187616325	-0.617963619200753	0.0	0.9402537840045195	-0.6205599334251004	0.0	0.9326395940444117	-0.7250862121836726	0.0	0.9251024024100865	-0.8261615987179494	0.0	0.9610101878374301	-0.8441939631792357	0.0	0.947295599427586	-0.8441187154163923	0.0	0.9179568190325584	-0.837479042837135	0.0	0.9706931014682081	-0.619530815240511	0.0	0.9586509688674676	-0.7248302670362983	0.0	0.9416542660539635	-0.8195821584904757	0.0	0.9770326416923139	-0.8381665808994725	0.0	0.9759186324366689	-0.8320594140621526	0.0	0.9378166828927652	-0.8302372137961475	0.0	0.9493596071083661	-0.4688427102345749	0.0	0.9505442837828944	-0.40382633079791896	0.0	0.9601066388305164	-0.43635108787274135	0.0	0.9236998969573529	-0.49518457883954653	0.0	0.9121490199232556	-0.566253418446615	0.0	0.9116522330179654	-0.6332737717272607	0.0	0.968750202277071	-0.49123768019415665	0.0	0.9653764727632979	-0.5619262945345588	0.0	0.9756457590190167	-0.6274395184432754	0.0
140	4.6963906581740975	0.9554616619188405	-0.6077363629098239	0.0	0.9397108244992044	-0.610221834897859	0.0	0.9334686763255319	-0.7146500151497168	0.0	0.9259859759344347	-0.8164087686972396	0.0	0.961512253546987	-0.8352000290550848	0.0	0.9473003966136377	-0.8353009844929118	0.0	0.918811478433128	-0.8284533141268592	0.0	0.9702498955049043	-0.609130814837494	0.0	0.9582323071137944	-0.7146205154940819	0.0	0.9420958417367843	-0.8103174720916857	0.0	0.9762716062981063	-0.8297841594523936	0.0	0.9759028971204258	-0.8241325591322272	0.0	0.937931914032811	-0.8214684429851534	0.0	0.949102479439494	-0.4582536357977132	0.0	0.9503327240459214	-0.3932248856128207	0.0	0.959446208430987	-0.42595263689985385	0.0	0.9233483580347198	-0.48392701468222465	0.0	0.9108691228412038	-0.5547404756179053	0.0	0.9110815322618939	-0.622237026318335	0.0	0.9688506891250387	-0.4809779256171371	0.0	0.9665761485181883	-0.5520640189390935	0.0	0.9776000796873816	-0.6168440777939626	0.0
141	4.729936305732484	0.9547625494426261	-0.5940898678164113	0.0	0.9390111210363754	-0.5964175064364441	0.0	0.9344854339776895	-0.7009002193283564	0.0	0.9270706872809025	-0.8037316128247961	0.0	0.9623268313685797	-0.8236919554578602	0.0	0.9473547311420064	-0.8241282423795354	0.0	0.9197267017587781	-0.8168458710239217	0.0	0.969507178437177	-0.5952050904206456	0.0	0.9577141558525828	-0.701118347115983	0.0	0.9424549430274209	-0.7980883394020609	0.0	0.9752375777129847	-0.8189693020824398	0.0	0.9757888569804224	-0.8137888279751908	0.0	0.9377810036285222	-0.8098776732835842	0.0	0.9488976928532264	-0.4440509276669095	0.0	0.9502511195783697	-0.37883991123670346	0.0	0.9587146325235589	-0.4119963052950287	0.0	0.9229721007926227	-0.4690409625916485	0.0	0.9094254725907442	-0.5395108483447929	0.0	0.9101442506777423	-0.6076867864289863	0.0	0.968987638192467	-0.46729233751860433	0.0	0.9678410834175518	-0.5387401924440214	0.0	0.9801900159948369	-0.6026392413172545	0.0
142	4.763481953290871	0.9537661807679021	-0.5782742638499043	0.0	0.9381177413069873	-0.5803943020827911	0.0	0.9356076048624609	-0.6851510886486345	0.0	0.9282715827193497	-0.7894000081847402	0.0	0.9634137658845512	-0.8109227758380962	0.0	0.9475630694192991	-0.811799228531096	0.0	0.9206363468437568	-0.8038010863053002	0.0	0.9685148801877056	-0.5790053316541556	0.0	0.9571839584638979	-0.6855387211472154	0.0	0.9426598531522943	-0.7840066102232649	0.0	0.9741629516422547	-0.8067737048259548	0.0	0.9756480043257204	-0.8019279317255561	0.0	0.9373606539192546	-0.7965220268327684	0.0	0.9487666083278044	-0.4277545729890427	0.0	0.9503021941176917	-0.3621081199738056	0.0	0.9579485319185941	-0.39596295779798113	0.0	0.9225473648712704	-0.45209169575244584	0.0	0.9079287970929649	-0.5221506090906088	0.0	0.9090173794785522	-0.5910765162894265	0.0	0.9691886827001177	-0.4516296329431336	0.0	0.9690425678046992	-0.5232685824109057	0.0	0.9831615075378092	-0.5862761957326793	0.0
143	4.7970276008492565	0.9525436529644472	-0.5616890029941296	0.0	0.9370613045747835	-0.5635363079822829	0.0	0.9367104253405999	-0.6687202769716193	0.0	0.9294277327782583	-0.7746466986585728	0.0	0.964521713769787	-0.7980676772141312	0.0	0.947860374474169	-0.7993535304226844	0.0	0.9214417748558108	-0.7903821557444334	0.0	0.9673705540189041	-0.5619794352632279	0.0	0.956703298322962	-0.6691506325454174	0.0	0.9426441497888342	-0.7693202018849397	0.0	0.9731008657269592	-0.7942939591492594	0.0	0.975410671782049	-0.7895866585189844	0.0	0.9366706723645989	-0.7826308713333766	0.0	0.9486590175516848	-0.41090837253035767	0.0	0.9504063626404397	-0.3445851347971106	0.0	0.957176447112429	-0.3793363508553696	0.0	0.9220749151586572	-0.4346406253362317	0.0	0.9063596670253995	-0.504262297013331	0.0	0.9077792462230556	-0.5738181236581521	0.0	0.969397168103298	-0.4353967738204557	0.0	0.9699185993576467	-0.5069903747012848	0.0	0.985915218686542	-0.5692440948715329	0.0
144	4.830573248407643	0.9512159914516328	-0.5457569914467248	0.0	0.935948969161888	-0.5472455422080976	0.0	0.9376477424247803	-0.6528793040954386	0.0	0.9303247795354315	-0.7606417475745084	0.0	0.9653272763713999	-0.7861520270695083	0.0	0.9480672116269014	-0.7877016211134977	0.0	0.9219857928649895	-0.7775473947643973	0.0	0.9661785804244585	-0.5455964936807285	0.0	0.9563209063919531	-0.6532386774719887	0.0	0.9423781964647852	-0.7553203468382734	0.0	0.9719510374534097	-0.7826288920349097	0.0	0.9748972814739144	-0.7778942683687019	0.0	0.9357320763103385	-0.7694529504626741	0.0	0.948484273566045	-0.39490226627652303	0.0	0.9504179590458751	-0.3278317606470048	0.0	0.956430598962098	-0.3634504783407423	0.0	0.9215570864826235	-0.4180899244387889	0.0	0.9046363648907376	-0.4873270093384628	0.0	0.9064053496416787	-0.5572387319985881	0.0	0.9695113252924179	-0.41985120621787025	0.0	0.9702872117875546	-0.49126797662044225	0.0	0.987898706758056	-0.5530140704823491	0.0
145	4.86411889596603	0.9499078524346063	-0.531712141386596	0.0	0.9348863211972207	-0.532775422303318	0.0	0.9383033955641398	-0.6388209167347327	0.0	0.930757873147616	-0.7483904688588517	0.0	0.965588541070282	-0.7759909600883028	0.0	0.9479687331530814	-0.7776484202402942	0.0	0.9220647870034229	-0.766128461898057	0.0	0.9650265936486371	-0.5311129533707494	0.0	0.9560683008961868	-0.6390545310097302	0.0	0.9418939276636733	-0.743104185069781	0.0	0.9706352797671981	-0.7727147277809473	0.0	0.9740046716474192	-0.7678231989369756	0.0	0.934613596151918	-0.757997099851003	0.0	0.9481505368549266	-0.3808864476243588	0.0	0.9502437622001226	-0.3132093465501245	0.0	0.9557143048956454	-0.3494196223613796	0.0	0.9209894262705406	-0.4035918989396947	0.0	0.9027000806022875	-0.4725534312959719	0.0	0.9048073198506498	-0.5425279606400766	0.0	0.9694256798791491	-0.4060683778058179	0.0	0.9700830760548151	-0.4773087926760215	0.0	0.9887323589022601	-0.5388765528790797	0.0
